<mxfile host="app.diagrams.net" modified="2022-08-12T07:45:16.909Z" agent="5.0 (Windows NT 10.0; Win64; x64) AppleWebKit/537.36 (KHTML, like Gecko) Chrome/103.0.5060.53 Safari/537.36 Edg/103.0.1264.37" etag="GWJBoe2C4XkEiYflUFZN" version="17.2.4" type="github">
  <diagram id="8s4QYpiPi4UWaAkvlVJo" name="Page-1">
    <mxGraphModel dx="1185" dy="635" grid="1" gridSize="10" guides="1" tooltips="1" connect="1" arrows="1" fold="1" page="1" pageScale="1" pageWidth="850" pageHeight="1100" math="0" shadow="0">
      <root>
        <mxCell id="0" />
        <mxCell id="1" parent="0" />
        <mxCell id="Oyf2wEZ1zQuML1rLrcPN-1" value="Acceptor" style="shape=umlLifeline;perimeter=lifelinePerimeter;whiteSpace=wrap;html=1;container=1;collapsible=0;recursiveResize=0;outlineConnect=0;size=30;" vertex="1" parent="1">
          <mxGeometry x="110" y="80" width="70" height="320" as="geometry" />
        </mxCell>
        <mxCell id="Oyf2wEZ1zQuML1rLrcPN-2" value="&lt;font style=&quot;font-size: 10px&quot;&gt;Event Loop 1&lt;br&gt;bind with main thread&lt;/font&gt;" style="shape=umlLifeline;perimeter=lifelinePerimeter;whiteSpace=wrap;html=1;container=1;collapsible=0;recursiveResize=0;outlineConnect=0;size=40;" vertex="1" parent="1">
          <mxGeometry x="230" y="80" width="100" height="320" as="geometry" />
        </mxCell>
        <mxCell id="Oyf2wEZ1zQuML1rLrcPN-15" value="" style="html=1;points=[];perimeter=orthogonalPerimeter;fontSize=10;" vertex="1" parent="Oyf2wEZ1zQuML1rLrcPN-2">
          <mxGeometry x="45" y="54" width="10" height="30" as="geometry" />
        </mxCell>
        <mxCell id="Oyf2wEZ1zQuML1rLrcPN-9" value="" style="html=1;points=[];perimeter=orthogonalPerimeter;fontSize=10;" vertex="1" parent="1">
          <mxGeometry x="340" y="183" width="10" height="30" as="geometry" />
        </mxCell>
        <mxCell id="Oyf2wEZ1zQuML1rLrcPN-10" value="epoll_wait" style="html=1;verticalAlign=bottom;endArrow=block;entryX=0;entryY=0;rounded=0;fontSize=10;" edge="1" target="Oyf2wEZ1zQuML1rLrcPN-9" parent="1">
          <mxGeometry relative="1" as="geometry">
            <mxPoint x="280" y="183" as="sourcePoint" />
          </mxGeometry>
        </mxCell>
        <mxCell id="Oyf2wEZ1zQuML1rLrcPN-11" value="return" style="html=1;verticalAlign=bottom;endArrow=open;dashed=1;endSize=8;exitX=0;exitY=0.95;rounded=0;fontSize=10;" edge="1" source="Oyf2wEZ1zQuML1rLrcPN-9" parent="1">
          <mxGeometry relative="1" as="geometry">
            <mxPoint x="279.66666666666674" y="211.5000000000001" as="targetPoint" />
          </mxGeometry>
        </mxCell>
        <mxCell id="Oyf2wEZ1zQuML1rLrcPN-12" value="dispatch" style="html=1;verticalAlign=bottom;endArrow=block;rounded=0;fontSize=10;" edge="1" parent="1">
          <mxGeometry width="80" relative="1" as="geometry">
            <mxPoint x="145" y="200" as="sourcePoint" />
            <mxPoint x="225" y="200" as="targetPoint" />
          </mxGeometry>
        </mxCell>
        <mxCell id="Oyf2wEZ1zQuML1rLrcPN-16" value="&lt;span style=&quot;background-color: rgb(255, 255, 255);&quot;&gt;create a eventfd/pipe/socket pair,&lt;/span&gt;&lt;br style=&quot;&quot;&gt;&lt;span style=&quot;background-color: rgb(255, 255, 255);&quot;&gt;and invoke epoll_ctl for it&#39;s readable.&lt;/span&gt;" style="text;html=1;strokeColor=none;fillColor=none;align=left;verticalAlign=middle;whiteSpace=wrap;rounded=0;fontSize=10;" vertex="1" parent="1">
          <mxGeometry x="289" y="133" width="165" height="30" as="geometry" />
        </mxCell>
      </root>
    </mxGraphModel>
  </diagram>
</mxfile>
